<?xml version="1.0" encoding="UTF-8" standalone="no"?>
<!DOCTYPE svg PUBLIC "-//W3C//DTD SVG 1.1//EN" "http://www.w3.org/Graphics/SVG/1.1/DTD/svg11.dtd">
<svg width="100%" height="100%" viewBox="0 0 469 88" version="1.1" xmlns="http://www.w3.org/2000/svg" xmlns:xlink="http://www.w3.org/1999/xlink" xml:space="preserve" xmlns:serif="http://www.serif.com/" style="fill-rule:evenodd;clip-rule:evenodd;stroke-linejoin:round;stroke-miterlimit:2;">
    <g transform="matrix(1,0,0,1,0,-13)">
        <path d="M118.411,67.226L118.411,21.907L140.552,21.907C146.249,21.907 150.522,22.986 153.371,25.144C156.262,27.302 157.708,30.151 157.708,33.69C157.708,36.064 157.126,38.136 155.96,39.905C154.795,41.632 153.198,42.97 151.169,43.919C149.141,44.869 146.81,45.344 144.177,45.344L145.408,42.689C148.256,42.689 150.781,43.164 152.982,44.113C155.183,45.02 156.888,46.379 158.097,48.192C159.348,50.005 159.974,52.228 159.974,54.86C159.974,58.745 158.442,61.788 155.378,63.989C152.313,66.147 147.803,67.226 141.847,67.226L118.411,67.226ZM128.834,59.328L141.07,59.328C143.789,59.328 145.839,58.896 147.22,58.033C148.645,57.126 149.357,55.702 149.357,53.76C149.357,51.861 148.645,50.458 147.22,49.552C145.839,48.602 143.789,48.127 141.07,48.127L128.057,48.127L128.057,40.488L139.257,40.488C141.804,40.488 143.746,40.056 145.084,39.193C146.465,38.287 147.156,36.927 147.156,35.114C147.156,33.345 146.465,32.028 145.084,31.165C143.746,30.259 141.804,29.806 139.257,29.806L128.834,29.806L128.834,59.328ZM167.202,67.226L167.202,19.188L177.302,19.188L177.302,67.226L167.202,67.226ZM203.249,67.744C199.537,67.744 196.235,66.967 193.344,65.413C190.495,63.859 188.229,61.745 186.546,59.069C184.906,56.349 184.086,53.263 184.086,49.811C184.086,46.315 184.906,43.229 186.546,40.553C188.229,37.834 190.495,35.719 193.344,34.208C196.235,32.654 199.537,31.877 203.249,31.877C206.918,31.877 210.198,32.654 213.09,34.208C215.981,35.719 218.247,37.812 219.887,40.488C221.527,43.164 222.348,46.271 222.348,49.811C222.348,53.263 221.527,56.349 219.887,59.069C218.247,61.745 215.981,63.859 213.09,65.413C210.198,66.967 206.918,67.744 203.249,67.744ZM203.249,59.457C204.932,59.457 206.443,59.069 207.781,58.292C209.119,57.515 210.176,56.414 210.953,54.99C211.73,53.522 212.118,51.796 212.118,49.811C212.118,47.782 211.73,46.056 210.953,44.631C210.176,43.207 209.119,42.106 207.781,41.33C206.443,40.553 204.932,40.164 203.249,40.164C201.566,40.164 200.055,40.553 198.717,41.33C197.379,42.106 196.3,43.207 195.48,44.631C194.703,46.056 194.315,47.782 194.315,49.811C194.315,51.796 194.703,53.522 195.48,54.99C196.3,56.414 197.379,57.515 198.717,58.292C200.055,59.069 201.566,59.457 203.249,59.457ZM245.931,67.744C242.176,67.744 238.831,66.989 235.896,65.478C232.961,63.924 230.652,61.788 228.969,59.069C227.329,56.349 226.509,53.263 226.509,49.811C226.509,46.315 227.329,43.229 228.969,40.553C230.652,37.834 232.961,35.719 235.896,34.208C238.831,32.654 242.176,31.877 245.931,31.877C249.6,31.877 252.793,32.654 255.513,34.208C258.232,35.719 260.239,37.898 261.533,40.747L253.7,44.955C252.793,43.315 251.65,42.106 250.269,41.33C248.931,40.553 247.463,40.164 245.866,40.164C244.14,40.164 242.586,40.553 241.205,41.33C239.824,42.106 238.723,43.207 237.903,44.631C237.126,46.056 236.738,47.782 236.738,49.811C236.738,51.839 237.126,53.566 237.903,54.99C238.723,56.414 239.824,57.515 241.205,58.292C242.586,59.069 244.14,59.457 245.866,59.457C247.463,59.457 248.931,59.09 250.269,58.356C251.65,57.58 252.793,56.349 253.7,54.666L261.533,58.939C260.239,61.745 258.232,63.924 255.513,65.478C252.793,66.989 249.6,67.744 245.931,67.744ZM275.51,60.104L275.769,47.804L292.019,32.395L304.061,32.395L288.459,48.257L283.215,52.53L275.51,60.104ZM267.159,67.226L267.159,19.188L277.258,19.188L277.258,67.226L267.159,67.226ZM293.12,67.226L281.337,52.594L287.682,44.761L305.356,67.226L293.12,67.226ZM310.61,67.226L310.61,21.907L319.285,21.907L346.023,54.537L341.815,54.537L341.815,21.907L352.174,21.907L352.174,67.226L343.563,67.226L316.76,34.597L320.969,34.597L320.969,67.226L310.61,67.226ZM378.757,67.744C375.046,67.744 371.744,66.967 368.852,65.413C366.004,63.859 363.738,61.745 362.054,59.069C360.414,56.349 359.594,53.263 359.594,49.811C359.594,46.315 360.414,43.229 362.054,40.553C363.738,37.834 366.004,35.719 368.852,34.208C371.744,32.654 375.046,31.877 378.757,31.877C382.426,31.877 385.706,32.654 388.598,34.208C391.49,35.719 393.756,37.812 395.396,40.488C397.036,43.164 397.856,46.271 397.856,49.811C397.856,53.263 397.036,56.349 395.396,59.069C393.756,61.745 391.49,63.859 388.598,65.413C385.706,66.967 382.426,67.744 378.757,67.744ZM378.757,59.457C380.441,59.457 381.951,59.069 383.289,58.292C384.627,57.515 385.685,56.414 386.462,54.99C387.239,53.522 387.627,51.796 387.627,49.811C387.627,47.782 387.239,46.056 386.462,44.631C385.685,43.207 384.627,42.106 383.289,41.33C381.951,40.553 380.441,40.164 378.757,40.164C377.074,40.164 375.564,40.553 374.226,41.33C372.888,42.106 371.809,43.207 370.989,44.631C370.212,46.056 369.823,47.782 369.823,49.811C369.823,51.796 370.212,53.522 370.989,54.99C371.809,56.414 372.888,57.515 374.226,58.292C375.564,59.069 377.074,59.457 378.757,59.457ZM418.85,67.744C414.75,67.744 411.556,66.708 409.268,64.636C406.981,62.521 405.837,59.392 405.837,55.249L405.837,24.691L415.936,24.691L415.936,55.119C415.936,56.587 416.325,57.731 417.102,58.551C417.879,59.328 418.936,59.716 420.274,59.716C421.871,59.716 423.231,59.284 424.353,58.421L427.072,65.543C426.036,66.276 424.784,66.837 423.317,67.226C421.893,67.571 420.404,67.744 418.85,67.744ZM400.463,40.941L400.463,33.172L424.612,33.172L424.612,40.941L400.463,40.941ZM448.952,67.744C444.981,67.744 441.485,66.967 438.464,65.413C435.486,63.859 433.177,61.745 431.537,59.069C429.897,56.349 429.077,53.263 429.077,49.811C429.077,46.315 429.875,43.229 431.472,40.553C433.112,37.834 435.335,35.719 438.141,34.208C440.946,32.654 444.118,31.877 447.657,31.877C451.067,31.877 454.132,32.611 456.851,34.079C459.613,35.503 461.793,37.575 463.389,40.294C464.986,42.97 465.785,46.185 465.785,49.94C465.785,50.329 465.763,50.782 465.72,51.3C465.677,51.774 465.634,52.228 465.591,52.659L437.299,52.659L437.299,46.768L460.282,46.768L456.397,48.516C456.397,46.703 456.031,45.128 455.297,43.79C454.563,42.452 453.549,41.416 452.254,40.682C450.959,39.905 449.449,39.517 447.722,39.517C445.996,39.517 444.464,39.905 443.126,40.682C441.831,41.416 440.816,42.473 440.083,43.854C439.349,45.192 438.982,46.789 438.982,48.645L438.982,50.199C438.982,52.098 439.392,53.781 440.212,55.249C441.075,56.673 442.262,57.774 443.773,58.551C445.327,59.284 447.14,59.651 449.211,59.651C451.067,59.651 452.686,59.371 454.067,58.81C455.491,58.249 456.786,57.407 457.951,56.285L463.325,62.111C461.728,63.924 459.721,65.327 457.304,66.32C454.887,67.269 452.103,67.744 448.952,67.744Z" style="fill:rgb(43,61,105);fill-rule:nonzero;"/>
    </g>
    <g transform="matrix(1.95942,0,0,1.62274,-126.381,-145.105)">
        <g transform="matrix(14,0,0,14,149.873,138.786)">
        </g>
        <g transform="matrix(14,0,0,14,153.638,138.786)">
        </g>
        <g transform="matrix(14,0,0,14,157.403,138.786)">
        </g>
        <g transform="matrix(14,0,0,14,302.84,138.786)">
        </g>
        <text x="124.19px" y="138.786px" style="font-family:'ArialMT', 'Arial';font-size:14px;fill:rgb(54,131,208);">Unoﬃcial <tspan x="184.538px 193.876px " y="138.786px 138.786px ">An</tspan>gular Integration</text>
    </g>
    <path d="M86.21,50.391L71.043,41.635C70.048,41.06 69.71,41.256 69.71,42.404L69.71,47.062C69.71,48.347 70.395,49.534 71.508,50.176L82.627,56.596C83.253,56.957 83.642,57.631 83.642,58.353L83.642,68.791L65.832,58.509L65.832,40.694L65.832,15.992C65.832,12.717 64.07,9.667 61.235,8.03L49.628,1.328C46.792,-0.308 43.269,-0.309 40.434,1.328L28.826,8.03C25.982,9.672 24.23,12.707 24.23,15.992L24.23,32.61C24.23,33.758 24.568,33.954 25.563,33.379L29.596,31.05C30.709,30.408 31.394,29.221 31.394,27.936L31.394,15.992C31.394,15.269 31.783,14.596 32.409,14.235L41.449,9.015L41.449,28.685L26.021,37.592L5.403,49.496C2.568,51.133 0.806,54.184 0.806,57.458L0.806,70.861C0.807,74.135 2.568,77.186 5.403,78.823L17.011,85.524C19.855,87.167 23.36,87.167 26.204,85.524L39.82,77.663C40.815,77.089 40.815,76.699 39.82,76.124L35.787,73.795C34.674,73.153 33.303,73.153 32.191,73.795L22.622,79.32C21.996,79.681 21.219,79.681 20.593,79.32L11.553,74.101L27.812,64.713L43.24,73.621L65.409,86.42C68.244,88.057 71.767,88.057 74.602,86.42L86.21,79.718C89.045,78.081 90.807,75.03 90.806,71.756L90.806,58.353C90.806,55.069 89.054,52.034 86.21,50.391ZM71.019,80.215C70.394,80.577 69.617,80.577 68.991,80.215L46.822,67.416L31.394,58.509L31.394,48.78C31.394,47.631 31.056,47.436 30.061,48.01L26.028,50.339C24.915,50.981 24.23,52.168 24.23,53.453L24.23,58.509L7.971,67.896L7.971,57.457C7.971,56.735 8.36,56.062 8.985,55.701L31.154,42.901L45.031,34.89L53.457,39.754C54.451,40.329 54.79,40.133 54.79,38.985L54.79,34.327C54.79,33.042 54.104,31.855 52.992,31.213L48.613,28.685L48.613,9.015L57.653,14.235C58.278,14.596 58.667,15.269 58.667,15.992L58.667,41.59L58.667,58.509L50.242,63.374C49.247,63.948 49.247,64.338 50.242,64.913L54.275,67.241C55.388,67.884 56.759,67.884 57.871,67.241L62.25,64.713L80.06,74.996L71.019,80.215Z" style="fill:url(#_Linear1);fill-rule:nonzero;"/>
    <defs>
        <linearGradient id="_Linear1" x1="0" y1="0" x2="1" y2="0" gradientUnits="userSpaceOnUse" gradientTransform="matrix(-47.8859,82.4702,-82.4702,-47.8859,76.5099,11.1618)"><stop offset="0" style="stop-color:rgb(0,235,231);stop-opacity:1"/><stop offset="1" style="stop-color:rgb(105,35,186);stop-opacity:1"/></linearGradient>
    </defs>
</svg>
